<svg id="Layer_1" data-name="Layer 1" xmlns="http://www.w3.org/2000/svg" xmlns:xlink="http://www.w3.org/1999/xlink" width="76" height="73" viewBox="0 0 76 73"><defs><style>.cls-1,.cls-8{fill:none;}.cls-2{clip-path:url(#clip-path);}.cls-3{opacity:0.1;}.cls-4{clip-path:url(#clip-path-3);}.cls-5{opacity:0.4;}.cls-6{fill:#033948;}.cls-7{fill:#fff;}.cls-8{stroke:#033948;stroke-miterlimit:10;}.cls-9{fill:#8fbf2d;}</style><clipPath id="clip-path" transform="translate(0 0)"><rect class="cls-1" width="75.97" height="73"/></clipPath><clipPath id="clip-path-3" transform="translate(0 0)"><rect class="cls-1" x="1.49" width="73" height="73"/></clipPath></defs><title>Syllbus2Go</title><g class="cls-2"><g class="cls-2"><g class="cls-3"><g class="cls-4"><g class="cls-5"><g class="cls-4"><path class="cls-6" d="M74.49,36.5A36.5,36.5,0,1,1,38,0a36.5,36.5,0,0,1,36.5,36.5" transform="translate(0 0)"/></g></g></g></g><path class="cls-7" d="M38,37.65,16.75,30.57V49.78a36.51,36.51,0,0,0,42.47,0V30.57Z" transform="translate(0 0)"/><path class="cls-8" d="M38,37.65,16.75,30.57V49.78a36.51,36.51,0,0,0,42.47,0V30.57Z" transform="translate(0 0)"/><line class="cls-7" x1="69.84" y1="27.03" x2="69.84" y2="39.94"/><line class="cls-8" x1="69.84" y1="27.03" x2="69.84" y2="39.94"/><path class="cls-9" d="M71.81,41.18a2,2,0,1,1-2-2,2,2,0,0,1,2,2" transform="translate(0 0)"/><polygon class="cls-8" points="37.98 13.38 1.58 25.51 37.98 37.65 74.39 25.51 37.98 13.38"/><polygon class="cls-7" points="37.98 13.38 1.58 25.51 37.98 37.65 74.39 25.51 37.98 13.38"/><polygon class="cls-8" points="37.98 13.38 1.58 25.51 37.98 37.65 74.39 25.51 37.98 13.38"/></g></g></svg>