<svg id="Layer_1" data-name="Layer 1" xmlns="http://www.w3.org/2000/svg" xmlns:xlink="http://www.w3.org/1999/xlink" width="73" height="73" viewBox="0 0 73 73"><defs><style>.cls-1{fill:none;}.cls-2{clip-path:url(#clip-path);}.cls-3{opacity:0.1;}.cls-4{opacity:0.4;}.cls-5{fill:#033948;}.cls-6{fill:#fff;}.cls-7{fill:#8fbf2d;}</style><clipPath id="clip-path" transform="translate(0 0)"><rect class="cls-1" width="73" height="73"/></clipPath></defs><title>Syllbus2Go</title><g class="cls-2"><g class="cls-2"><g class="cls-3"><g class="cls-2"><g class="cls-4"><g class="cls-2"><path class="cls-5" d="M73,36.5A36.5,36.5,0,1,1,36.5,0,36.5,36.5,0,0,1,73,36.5" transform="translate(0 0)"/></g></g></g></g><path class="cls-6" d="M65.62,13.94H61.11V11.12a.87.87,0,0,0-.88-.87H41.56a4.71,4.71,0,0,0-3.79,1.92,4.76,4.76,0,0,0-3.91-2.06H15.12a.87.87,0,0,0-.87.87v3H9.81a.87.87,0,0,0-.87.87V59.19a.87.87,0,0,0,.87.87H65.62a.87.87,0,0,0,.87-.87V14.81a.87.87,0,0,0-.87-.87" transform="translate(0 0)"/><polyline class="cls-7" points="57.19 10.03 57.19 20.43 54.7 17.99 52.21 20.43 52.21 10.03"/><path class="cls-5" d="M9,60.35a.55.55,0,0,1-.54-.55V13.89A.55.55,0,0,1,9,13.34h4.92V9.93a.55.55,0,0,1,.55-.55H33.76a4.52,4.52,0,0,1,3.73,2l.28.4.29-.39a4.52,4.52,0,0,1,3.62-1.84H60.9a.55.55,0,0,1,.55.55v3.26h5a.55.55,0,0,1,.55.55V59.8a.55.55,0,0,1-.55.55Zm32.68-5a3.41,3.41,0,0,0-3.41,3.41l-.07.41.4.06H65.9V14.44H61.45V54.83a.54.54,0,0,1-.55.54ZM9.55,59.25H37.26l-.06-.4,0-.1a3.4,3.4,0,0,0-3.41-3.39H14.47a.55.55,0,0,1-.55-.55V14.44H9.55ZM41.68,10.63A3.41,3.41,0,0,0,38.27,14v2l.33,0a16.68,16.68,0,0,1,0,33.32l-.33,0v6.35l.57-.46a4.52,4.52,0,0,1,2.84-1H60.36V10.63ZM15,54.27H33.76a4.53,4.53,0,0,1,2.85,1l.57.47V49.4l-.33,0a16.68,16.68,0,0,1,0-33.32l.33,0V13.89a3.42,3.42,0,0,0-3.42-3.41H15ZM29.89,42.08a16.27,16.27,0,0,0-2.49,1.79l-.3.26.3.26a15.66,15.66,0,0,0,7,3.56l2.39.56a19.84,19.84,0,0,1-6.37-6.3l-.18-.31Zm15.19.13a13.51,13.51,0,0,1-6.55,6.22L41.1,48a15.6,15.6,0,0,0,6.95-3.56l.3-.26-.3-.26a16.27,16.27,0,0,0-2.49-1.79l-.31-.18ZM38.27,47.9l.56-.4a18.31,18.31,0,0,0,5.25-5.76l.2-.34-.36-.16A15.62,15.62,0,0,0,38.64,40l-.37,0ZM36.81,40a15.45,15.45,0,0,0-5.29,1.24l-.36.15.2.34a18.66,18.66,0,0,0,5.26,5.76l.56.39V40ZM22.16,33.64A15.62,15.62,0,0,0,26.1,43.1l.23.26.26-.23a16.42,16.42,0,0,1,2.83-2l.28-.16-.14-.29a18.87,18.87,0,0,1-1.72-7v-.33H22.14Zm25.44,0a19.16,19.16,0,0,1-1.72,7l-.14.29.28.16a17.54,17.54,0,0,1,2.84,2.05l.26.23.23-.26a15.62,15.62,0,0,0,3.94-9.46l0-.37H47.62Zm-18.66,0a17.54,17.54,0,0,0,1.59,6.49l.14.31.32-.14a16.54,16.54,0,0,1,5.86-1.38l.33,0V33.27H28.92Zm9.33,5.26.33,0a16.49,16.49,0,0,1,5.85,1.38l.32.13.14-.31a18.09,18.09,0,0,0,1.59-6.47l0-.37H38.27ZM48.86,22.32a16.93,16.93,0,0,1-2.83,2l-.28.16.14.29a18.82,18.82,0,0,1,1.72,7v.33h5.69l0-.37a15.62,15.62,0,0,0-3.94-9.46l-.23-.26Zm-4.4,2.83a16.49,16.49,0,0,1-5.86,1.38l-.33,0v5.62h8.26l0-.36a17.54,17.54,0,0,0-1.59-6.48L44.78,25Zm-13.92.18A18,18,0,0,0,29,31.8l0,.37h8.26V26.55l-.33,0A16.65,16.65,0,0,1,31,25.16L30.68,25Zm-4.44-3a15.62,15.62,0,0,0-3.94,9.46l0,.37h5.69l0-.33a18.93,18.93,0,0,1,1.73-7l.13-.29-.28-.16a17.31,17.31,0,0,1-2.84-2l-.26-.24Zm10.53-4.4a18.22,18.22,0,0,0-5.26,5.76l-.2.34.36.16a15.39,15.39,0,0,0,5.28,1.23l.37,0V17.55Zm1.64,7.52.37,0a15.22,15.22,0,0,0,5.29-1.24l.36-.15-.2-.34a18.66,18.66,0,0,0-5.26-5.76l-.56-.39Zm-3.94-8a15.52,15.52,0,0,0-6.93,3.55l-.3.26.3.26a16.27,16.27,0,0,0,2.49,1.79l.31.18.18-.3a19.5,19.5,0,0,1,6.48-6.35Zm4.3-.61a16.79,16.79,0,0,1,6.45,6.34l.18.31.3-.18a16.27,16.27,0,0,0,2.49-1.79l.3-.26-.3-.26a15.54,15.54,0,0,0-7-3.56Z" transform="translate(0 0)"/></g></g></svg>