<svg id="Layer_1" data-name="Layer 1" xmlns="http://www.w3.org/2000/svg" xmlns:xlink="http://www.w3.org/1999/xlink" width="73" height="73" viewBox="0 0 73 73"><defs><style>.cls-1,.cls-8{fill:none;}.cls-2{clip-path:url(#clip-path);}.cls-3{opacity:0.1;}.cls-4{opacity:0.4;}.cls-5{fill:#033948;}.cls-6{fill:#fff;}.cls-7{fill:#8fbf2f;}.cls-8{stroke:#033948;stroke-linecap:round;stroke-linejoin:round;}</style><clipPath id="clip-path" transform="translate(0 0)"><rect class="cls-1" width="73" height="73"/></clipPath></defs><title>Syllbus2Go</title><g class="cls-2"><g class="cls-2"><g class="cls-3"><g class="cls-2"><g class="cls-4"><g class="cls-2"><path class="cls-5" d="M73,36.5A36.5,36.5,0,1,1,36.5,0,36.5,36.5,0,0,1,73,36.5" transform="translate(0 0)"/></g></g></g></g></g><polygon class="cls-6" points="37.08 18.69 37.08 15.76 35.45 13.58 32.95 12.39 13.65 12.39 11.99 12.82 11.15 14.89 11.15 17.45 9.85 17.45 8.59 17.82 7.69 19.32 7.69 21.44 10.09 51.38 32.52 54.47 35.02 54.47 35.13 56.48 39.15 56.17 39.31 54.42 64.5 54.2 64.83 29.22 64.5 18.88 63.2 16.84 63.15 14.89 62.63 13.1 60.65 12.39 40.96 12.44 38.93 13.58 37.87 14.89 37.08 18.69"/><g class="cls-2"><path class="cls-5" d="M37.15,48.89a9.5,9.5,0,1,1,9.5-9.5,9.51,9.51,0,0,1-9.5,9.5m0-18a8.5,8.5,0,1,0,8.5,8.5,8.51,8.51,0,0,0-8.5-8.5" transform="translate(0 0)"/><path class="cls-5" d="M37.15,25.89a.5.5,0,0,1-.5-.5v-8a.5.5,0,0,1,.5-.5.5.5,0,0,1,.5.5v8a.51.51,0,0,1-.5.5" transform="translate(0 0)"/><path class="cls-5" d="M63.15,18.46a.5.5,0,0,1-.5-.5V14.89a2,2,0,0,0-2-2H42.15a4.51,4.51,0,0,0-4.5,4.5.51.51,0,0,1-.5.5.5.5,0,0,1-.5-.5,4.51,4.51,0,0,0-4.5-4.5H13.65a2,2,0,0,0-2,2V18a.5.5,0,0,1-.5.5.5.5,0,0,1-.5-.5V14.89a3,3,0,0,1,3-3h18.5a5.52,5.52,0,0,1,5,3.21,5.51,5.51,0,0,1,5-3.21h18.5a3,3,0,0,1,3,3V18a.5.5,0,0,1-.5.5" transform="translate(0 0)"/><line class="cls-6" x1="16.15" y1="28.39" x2="26.15" y2="28.39"/><path class="cls-5" d="M26.15,28.89h-10a.5.5,0,0,1-.5-.5.5.5,0,0,1,.5-.5h10a.5.5,0,0,1,.5.5.51.51,0,0,1-.5.5" transform="translate(0 0)"/><line class="cls-6" x1="16.15" y1="32.39" x2="23.15" y2="32.39"/><path class="cls-5" d="M23.15,32.89h-7a.5.5,0,0,1-.5-.5.5.5,0,0,1,.5-.5h7a.5.5,0,0,1,.5.5.51.51,0,0,1-.5.5" transform="translate(0 0)"/><line class="cls-6" x1="16.15" y1="36.39" x2="23.15" y2="36.39"/><path class="cls-5" d="M23.15,36.89h-7a.5.5,0,0,1-.5-.5.5.5,0,0,1,.5-.5h7a.5.5,0,0,1,.5.5.51.51,0,0,1-.5.5" transform="translate(0 0)"/><line class="cls-6" x1="16.15" y1="40.39" x2="23.15" y2="40.39"/><path class="cls-5" d="M23.15,40.89h-7a.5.5,0,0,1-.5-.5.5.5,0,0,1,.5-.5h7a.5.5,0,0,1,.5.5.51.51,0,0,1-.5.5" transform="translate(0 0)"/><line class="cls-6" x1="25.19" y1="20.39" x2="32.19" y2="20.39"/><path class="cls-5" d="M32.2,20.89h-7a.5.5,0,0,1-.5-.5.5.5,0,0,1,.5-.5h7a.5.5,0,0,1,.5.5.51.51,0,0,1-.5.5" transform="translate(0 0)"/><line class="cls-6" x1="25.19" y1="24.39" x2="32.19" y2="24.39"/><path class="cls-5" d="M32.2,24.89h-7a.5.5,0,0,1-.5-.5.5.5,0,0,1,.5-.5h7a.5.5,0,0,1,.5.5.51.51,0,0,1-.5.5" transform="translate(0 0)"/><line class="cls-6" x1="48.15" y1="28.39" x2="58.15" y2="28.39"/><path class="cls-5" d="M58.15,28.89h-10a.5.5,0,0,1-.5-.5.5.5,0,0,1,.5-.5h10a.5.5,0,0,1,.5.5.51.51,0,0,1-.5.5" transform="translate(0 0)"/><line class="cls-6" x1="51.15" y1="32.39" x2="58.15" y2="32.39"/><path class="cls-5" d="M58.15,32.89h-7a.5.5,0,0,1-.5-.5.5.5,0,0,1,.5-.5h7a.5.5,0,0,1,.5.5.51.51,0,0,1-.5.5" transform="translate(0 0)"/><line class="cls-6" x1="51.15" y1="36.39" x2="58.15" y2="36.39"/><path class="cls-5" d="M58.15,36.89h-7a.5.5,0,0,1-.5-.5.5.5,0,0,1,.5-.5h7a.5.5,0,0,1,.5.5.51.51,0,0,1-.5.5" transform="translate(0 0)"/><line class="cls-6" x1="51.15" y1="40.39" x2="58.15" y2="40.39"/><path class="cls-5" d="M58.15,40.89h-7a.5.5,0,0,1-.5-.5.5.5,0,0,1,.5-.5h7a.5.5,0,0,1,.5.5.51.51,0,0,1-.5.5" transform="translate(0 0)"/><line class="cls-6" x1="42.15" y1="20.39" x2="58.15" y2="20.39"/><path class="cls-5" d="M58.15,20.89h-16a.5.5,0,0,1-.5-.5.5.5,0,0,1,.5-.5h16a.5.5,0,0,1,.5.5.51.51,0,0,1-.5.5" transform="translate(0 0)"/><line class="cls-6" x1="42.15" y1="24.39" x2="58.15" y2="24.39"/><path class="cls-5" d="M58.15,24.89h-16a.5.5,0,0,1-.5-.5.5.5,0,0,1,.5-.5h16a.5.5,0,0,1,.5.5.51.51,0,0,1-.5.5" transform="translate(0 0)"/><path class="cls-5" d="M39.15,56.89h-4a.5.5,0,0,1-.5-.5V51.21a.46.46,0,0,1,.18-.38.46.46,0,0,1,.4-.11,10.77,10.77,0,0,0,3.84,0,.46.46,0,0,1,.4.11.49.49,0,0,1,.18.38v5.18a.51.51,0,0,1-.5.5m-3.5-1h3v-4.1a11.59,11.59,0,0,1-3,0Z" transform="translate(0 0)"/><path class="cls-6" d="M33.15,52.78a14,14,0,0,1-5.78-3.39H13.65a2.5,2.5,0,0,1-2.5-2.5V18l-.57-.57h-.43a2.5,2.5,0,0,0-2.5,2.5v32a2.5,2.5,0,0,0,2.5,2.5h22a5.57,5.57,0,0,1,1,.11Z" transform="translate(0 0)"/><path class="cls-6" d="M64.15,17.39h-.43l-.57.57V46.89a2.5,2.5,0,0,1-2.5,2.5H46.93a14,14,0,0,1-5.78,3.39V54.5a5.37,5.37,0,0,1,1-.11h22a2.5,2.5,0,0,0,2.5-2.5v-32a2.5,2.5,0,0,0-2.5-2.5" transform="translate(0 0)"/><path class="cls-5" d="M37.15,51.89a12.5,12.5,0,1,1,12.5-12.5,12.52,12.52,0,0,1-12.5,12.5m0-24a11.5,11.5,0,1,0,11.5,11.5,11.51,11.51,0,0,0-11.5-11.5" transform="translate(0 0)"/><path class="cls-5" d="M64.15,54.89H39.25a.51.51,0,0,1-.5-.5.5.5,0,0,1,.5-.5h24.9a2,2,0,0,0,2-2v-32a2,2,0,0,0-2-2h-.22l-.28.28V46.89a3,3,0,0,1-3,3H46.93a.5.5,0,0,1-.5-.5.5.5,0,0,1,.5-.5H60.65a2,2,0,0,0,2-2V18a.5.5,0,0,1,.14-.35l.57-.58a.54.54,0,0,1,.36-.14h.43a3,3,0,0,1,3,3v32a3,3,0,0,1-3,3" transform="translate(0 0)"/><path class="cls-5" d="M35.07,54.89H10.15a3,3,0,0,1-3-3v-32a3,3,0,0,1,3-3h.43a.5.5,0,0,1,.35.14l.57.58a.48.48,0,0,1,0,.7.5.5,0,0,1-.71,0l-.42-.42h-.22a2,2,0,0,0-2,2v32a2,2,0,0,0,2,2H35.07a.5.5,0,0,1,.5.5.5.5,0,0,1-.5.5" transform="translate(0 0)"/><path class="cls-5" d="M11.15,24.46a.5.5,0,0,1-.5-.5V21a.5.5,0,0,1,.5-.5.5.5,0,0,1,.5.5v3a.5.5,0,0,1-.5.5" transform="translate(0 0)"/><path class="cls-5" d="M27.37,49.89H13.65a3,3,0,0,1-3-3V27a.5.5,0,0,1,.5-.5.5.5,0,0,1,.5.5V46.89a2,2,0,0,0,2,2H27.37a.5.5,0,0,1,.5.5.5.5,0,0,1-.5.5" transform="translate(0 0)"/><path class="cls-6" d="M38.65,56.39h-3a1,1,0,0,0-1,1v10a1,1,0,0,0,1,1h3a1,1,0,0,0,1-1v-10a1,1,0,0,0-1-1" transform="translate(0 0)"/><path class="cls-5" d="M38.65,68.89h-3a1.5,1.5,0,0,1-1.5-1.5v-10a1.5,1.5,0,0,1,1.5-1.5h3a1.5,1.5,0,0,1,1.5,1.5v10a1.5,1.5,0,0,1-1.5,1.5m-3-12a.5.5,0,0,0-.5.5v10a.5.5,0,0,0,.5.5h3a.51.51,0,0,0,.5-.5v-10a.5.5,0,0,0-.5-.5Z" transform="translate(0 0)"/><path class="cls-7" d="M43.15,39.89a.5.5,0,0,1-.5-.5,5.51,5.51,0,0,0-5.5-5.5.5.5,0,0,1-.5-.5.5.5,0,0,1,.5-.5,6.51,6.51,0,0,1,6.5,6.5.51.51,0,0,1-.5.5" transform="translate(0 0)"/><path class="cls-7" d="M22.15,24.89a.51.51,0,0,1-.43-.24l-2.57-4.29c-1,1.72-2.39,3.93-2.54,4.22a.51.51,0,0,1-.42.31.5.5,0,0,1-.54-.46c0-.22,0-.23,3.07-5.3a.5.5,0,0,1,.43-.24.46.46,0,0,1,.43.24l3,5a.5.5,0,0,1-.43.76" transform="translate(0 0)"/><path class="cls-7" d="M21,22.89H17.33a.5.5,0,0,1-.5-.5.5.5,0,0,1,.5-.5H21a.5.5,0,0,1,.5.5.51.51,0,0,1-.5.5" transform="translate(0 0)"/><line class="cls-8" x1="34.65" y1="65.39" x2="39.65" y2="65.39"/></g></g></svg>