<svg id="Layer_1" data-name="Layer 1" xmlns="http://www.w3.org/2000/svg" xmlns:xlink="http://www.w3.org/1999/xlink" width="73" height="73" viewBox="0 0 73 73"><defs><style>.cls-1,.cls-7{fill:none;}.cls-2{clip-path:url(#clip-path);}.cls-3{opacity:0.1;}.cls-4{opacity:0.4;}.cls-5{fill:#033948;}.cls-6{fill:#fff;}.cls-7{stroke:#033948;stroke-miterlimit:10;}.cls-8{fill:#8fbf2f;}</style><clipPath id="clip-path" transform="translate(0 0)"><rect class="cls-1" width="73" height="73"/></clipPath></defs><title>Syllbus2Go</title><g class="cls-2"><g class="cls-2"><g class="cls-3"><g class="cls-2"><g class="cls-4"><g class="cls-2"><path class="cls-5" d="M73,36.5A36.5,36.5,0,1,1,36.5,0,36.5,36.5,0,0,1,73,36.5" transform="translate(0 0)"/></g></g></g></g><path class="cls-6" d="M22.41,63.18l4.94-.06,2.52-5H11.22A2.59,2.59,0,0,1,8.63,55.5V15.62A2.59,2.59,0,0,1,11.22,13h2.63V8.73l27.66,0a3.78,3.78,0,0,1,3.13,1.65l.65.94.68-.92a3.8,3.8,0,0,1,3-1.53h8.86l0,4.2h2.63a2.59,2.59,0,0,1,2.59,2.58V55.5a2.59,2.59,0,0,1-2.59,2.58H41.88l2.52,5h4.94v.06Z" transform="translate(0 0)"/><path class="cls-5" d="M22.47,63.55a.45.45,0,1,1,0-.89h4.68l2.11-4.22h-18a3,3,0,0,1-3-3V15.58a3,3,0,0,1,3-3h2.22V8.69a.44.44,0,0,1,.45-.44H41.56A4.21,4.21,0,0,1,45,10.07l.32.47.35-.46a4.19,4.19,0,0,1,3.36-1.69h8.86a.44.44,0,0,1,.44.44v3.76h2.23a3,3,0,0,1,3,3V55.45a3,3,0,0,1-3,3h-18l2.11,4.22h4.69a.45.45,0,0,1,0,.89Zm5.67-.89H43.72l-2.11-4.22H30.25Zm-19-7.21a2.11,2.11,0,0,0,2.11,2.11H60.59a2.11,2.11,0,0,0,2.11-2.11V53.34H9.16Zm39.9-6.67a3.29,3.29,0,0,0-3.3,3.27v.41H62.7V15.58a2.12,2.12,0,0,0-2.11-2.11H58.36V48.34a.44.44,0,0,1-.44.44ZM11.27,13.47a2.12,2.12,0,0,0-2.11,2.11V52.46H44.87v-.41a3.29,3.29,0,0,0-3.31-3.28H13.94a.45.45,0,0,1-.45-.44V13.47Zm37.79-4.2a3.29,3.29,0,0,0-3.3,3.27V49.37l.66-.54a4.23,4.23,0,0,1,2.64-.93h8.42V9.27ZM14.38,47.89H41.56a4.26,4.26,0,0,1,2.65.93l.66.54V12.41a3.29,3.29,0,0,0-3.31-3.28H14.38Z" transform="translate(0 0)"/><path class="cls-6" d="M29.63,33.32a9.8,9.8,0,1,1,9.79-9.79,9.81,9.81,0,0,1-9.79,9.79" transform="translate(0 0)"/><path class="cls-7" d="M29.63,33.32a9.8,9.8,0,1,1,9.79-9.79A9.81,9.81,0,0,1,29.63,33.32Z" transform="translate(0 0)"/><path class="cls-8" d="M27.54,28.75a.41.41,0,0,1-.19-.05.43.43,0,0,1-.25-.39V18.75a.45.45,0,0,1,.25-.4.41.41,0,0,1,.19,0,.47.47,0,0,1,.28.09l6,4.78a.46.46,0,0,1,.16.35.44.44,0,0,1-.16.34l-6,4.78a.48.48,0,0,1-.28.1" transform="translate(0 0)"/><path class="cls-5" d="M29.63,38.17a.45.45,0,0,1,0-.89H39a.45.45,0,0,1,0,.89Z" transform="translate(0 0)"/><path class="cls-5" d="M20.27,38.17a.45.45,0,0,1,0-.89h5.1a.45.45,0,0,1,0,.89Z" transform="translate(0 0)"/><path class="cls-5" d="M20.27,43.27a.44.44,0,0,1-.44-.44.44.44,0,0,1,.44-.44H33a.44.44,0,0,1,.44.44.44.44,0,0,1-.44.44Z" transform="translate(0 0)"/></g></g></svg>