<svg id="Layer_1" data-name="Layer 1" xmlns="http://www.w3.org/2000/svg" xmlns:xlink="http://www.w3.org/1999/xlink" width="73" height="73" viewBox="0 0 73 73"><defs><style>.cls-1,.cls-11,.cls-7,.cls-8,.cls-9{fill:none;}.cls-2{clip-path:url(#clip-path);}.cls-3{opacity:0.1;}.cls-4{opacity:0.4;}.cls-5{fill:#033948;}.cls-6{fill:#fff;}.cls-11,.cls-7,.cls-8{stroke:#033948;}.cls-11,.cls-7,.cls-9{stroke-miterlimit:10;}.cls-8,.cls-9{stroke-linecap:round;}.cls-8{stroke-linejoin:round;}.cls-9{stroke:#8fbf2d;}.cls-10{fill:#8fbf2d;}.cls-11{stroke-width:0.75px;}</style><clipPath id="clip-path" transform="translate(0 0)"><rect class="cls-1" width="73" height="73"/></clipPath></defs><title>Syllbus2Go</title><g class="cls-2"><g class="cls-2"><g class="cls-3"><g class="cls-2"><g class="cls-4"><g class="cls-2"><path class="cls-5" d="M73,36.5A36.5,36.5,0,1,1,36.5,0,36.5,36.5,0,0,1,73,36.5" transform="translate(0 0)"/></g></g></g></g><path class="cls-6" d="M50.87,65.85H21.43a5.28,5.28,0,0,1-5.28-5.28V11.13a5.27,5.27,0,0,1,5.28-5.28H50.87a5.28,5.28,0,0,1,5.28,5.28V60.57a5.29,5.29,0,0,1-5.28,5.28" transform="translate(0 0)"/><rect class="cls-7" x="16.15" y="5.85" width="40" height="60" rx="5.28" ry="5.28"/><rect class="cls-8" x="21.15" y="20.35" width="30" height="30" rx="2.38" ry="2.38"/><path class="cls-8" d="M38.46,29.22a4.94,4.94,0,1,1-4.94-4.93A4.94,4.94,0,0,1,38.46,29.22Z" transform="translate(0 0)"/><path class="cls-8" d="M48.92,35.31l-1.16,1.16-2.33-2.32L46.59,33a1.64,1.64,0,0,1,2.33,2.32Z" transform="translate(0 0)"/><path class="cls-6" d="M38.46,46.48V38.8l2.32,2.32a1.63,1.63,0,0,0,2.33,0l4.65-4.65-2.33-2.32-3.49,3.49-2.21-2.22a4.37,4.37,0,0,0-3.07-1.27H36.4l-2.88,3.29-2.87-3.29h-1a4.34,4.34,0,0,0-4.34,4.34v8" transform="translate(0 0)"/><path class="cls-8" d="M38.46,46.48V38.8l2.32,2.32a1.63,1.63,0,0,0,2.33,0l4.65-4.65-2.33-2.32-3.49,3.49-2.21-2.22a4.37,4.37,0,0,0-3.07-1.27H36.4l-2.88,3.29-2.87-3.29h-1a4.34,4.34,0,0,0-4.34,4.34v8" transform="translate(0 0)"/><line class="cls-8" x1="33.53" y1="37.44" x2="33.53" y2="41.55"/><line class="cls-8" x1="16.65" y1="57.35" x2="55.65" y2="57.35"/><line class="cls-8" x1="16.65" y1="12.35" x2="55.65" y2="12.35"/><path class="cls-6" d="M63.81,57.73h-13a2.5,2.5,0,0,1-2.5-2.5v-13a2.5,2.5,0,0,1,2.5-2.5h13a2.5,2.5,0,0,1,2.5,2.5v13a2.5,2.5,0,0,1-2.5,2.5" transform="translate(0 0)"/><rect class="cls-7" x="48.31" y="39.73" width="18" height="18" rx="2.5" ry="2.5"/><line class="cls-8" x1="29.31" y1="46.48" x2="29.31" y2="38.98"/><line class="cls-9" x1="62.44" y1="45.44" x2="62.44" y2="47.84"/><line class="cls-9" x1="61.23" y1="46.64" x2="63.66" y2="46.64"/><path class="cls-10" d="M59.35,46a2.7,2.7,0,1,1-2.7-2.7,2.7,2.7,0,0,1,2.7,2.7" transform="translate(0 0)"/><path class="cls-10" d="M61.58,53.76a5,5,0,0,0-10,0Z" transform="translate(0 0)"/><path class="cls-5" d="M37,9.37a.9.9,0,1,1-.89-.89.89.89,0,0,1,.89.89" transform="translate(0 0)"/><path class="cls-11" d="M37.9,60.89a1.76,1.76,0,1,1-1.75-1.75A1.76,1.76,0,0,1,37.9,60.89Z" transform="translate(0 0)"/></g></g></svg>