<svg id="Layer_1" data-name="Layer 1" xmlns="http://www.w3.org/2000/svg" xmlns:xlink="http://www.w3.org/1999/xlink" width="73" height="73" viewBox="0 0 73 73"><defs><style>.cls-1{fill:none;}.cls-2{clip-path:url(#clip-path);}.cls-3{opacity:0.1;}.cls-4{opacity:0.4;}.cls-5{fill:#023847;}.cls-6{fill:#fff;}.cls-7{fill:#8fbe2d;}</style><clipPath id="clip-path" transform="translate(0 0)"><rect class="cls-1" width="73" height="73"/></clipPath></defs><title>Syllbus2Go</title><g class="cls-2"><g class="cls-2"><g class="cls-3"><g class="cls-2"><g class="cls-4"><g class="cls-2"><path class="cls-5" d="M73,36.5A36.5,36.5,0,1,1,36.5,0,36.5,36.5,0,0,1,73,36.5" transform="translate(0 0)"/></g></g></g></g><path class="cls-6" d="M15.45,59.41a.53.53,0,0,1-.53-.53V17.47a.52.52,0,0,1,.53-.52H28.17v-6.1a.53.53,0,0,1,.53-.53H39.47a.52.52,0,0,1,.52.53v48a.52.52,0,0,1-.52.53Z" transform="translate(0 0)"/><path class="cls-6" d="M51.06,59.41a.64.64,0,0,1-.27-.07.51.51,0,0,1-.24-.33L40.61,20.92a.54.54,0,0,1,.38-.65L53.41,17h.13a.5.5,0,0,1,.27.07.49.49,0,0,1,.24.32L64,55.44a.52.52,0,0,1-.37.64L51.19,59.39l-.13,0" transform="translate(0 0)"/><path class="cls-5" d="M15.4,59.19a.53.53,0,0,1-.53-.53V17.25a.53.53,0,0,1,.53-.53H28.12V10.63a.53.53,0,0,1,.53-.53H39.42a.52.52,0,0,1,.52.53v48a.52.52,0,0,1-.52.53Zm13.78-1.06h9.71V54.22H29.18Zm-13.25,0H28.12V52.56H15.93Zm13.25-5h9.71V50.91H29.18ZM15.93,51.51H28.12V48.42H15.93Zm13.25-1.66h9.71V20.26H29.18ZM15.93,47.37H28.12V21.92H15.93Zm0-26.5H28.12V17.78H15.93Zm13.25-1.66h9.71V16.12H29.18Zm0-4.14h9.71V11.15H29.18Z" transform="translate(0 0)"/><path class="cls-5" d="M51,59.19a.64.64,0,0,1-.27-.07.51.51,0,0,1-.24-.33L40.56,20.7a.54.54,0,0,1,.38-.65l12.42-3.31.13,0a.6.6,0,0,1,.27.07.53.53,0,0,1,.24.33l9.94,38.09a.53.53,0,0,1-.37.65L51.14,59.17l-.13,0M50.33,54l1.06,4,11.4-3-1-4Zm-1.26-4.85,1,3.83,11.4-3-1-3.83Zm-5.22-20,4.95,19,11.4-3-5-19Zm-2.13-8.15,1.05,4,11.4-3-1.05-4Z" transform="translate(0 0)"/><polygon class="cls-6" points="43.03 26 43.58 28.07 54.98 25.03 54.44 22.96 43.03 26"/><rect class="cls-7" x="20.88" y="25.53" width="2.83" height="18.68"/><rect class="cls-7" x="32.6" y="25.53" width="2.83" height="18.68"/><rect class="cls-7" x="50.94" y="30.84" width="2.83" height="12.95" transform="translate(-7.85 14.75) rotate(-14.94)"/></g></g></svg>