<svg id="Layer_1" data-name="Layer 1" xmlns="http://www.w3.org/2000/svg" xmlns:xlink="http://www.w3.org/1999/xlink" width="73" height="73" viewBox="0 0 73 73"><defs><style>.cls-1,.cls-8{fill:none;}.cls-2{clip-path:url(#clip-path);}.cls-3{opacity:0.1;}.cls-4{opacity:0.4;}.cls-5{fill:#033948;}.cls-6{fill:#fff;}.cls-7{fill:#8fbf2f;}.cls-8{stroke:#033948;stroke-miterlimit:10;}.cls-9{fill:#8fbf2d;}</style><clipPath id="clip-path" transform="translate(0 0)"><rect class="cls-1" width="73" height="73"/></clipPath></defs><title>Syllbus2Go</title><g class="cls-2"><g class="cls-2"><g class="cls-3"><g class="cls-2"><g class="cls-4"><g class="cls-2"><path class="cls-5" d="M73,36.5A36.5,36.5,0,1,1,36.5,0,36.5,36.5,0,0,1,73,36.5" transform="translate(0 0)"/></g></g></g></g></g><polygon class="cls-6" points="36.9 56.36 12.4 54.63 9.98 51.52 10.24 40.14 11.62 21.85 11.67 18.02 32.15 17.97 35.09 19.44 37.07 23.06 38.28 20.21 41.47 18.23 43.15 18.02 62.34 18.06 64.16 50.49 63.81 54.8 36.9 56.36"/><rect class="cls-7" x="41.86" y="35.19" width="16.66" height="2.76"/><line class="cls-8" x1="42.89" y1="40.47" x2="57.53" y2="40.47"/><line class="cls-8" x1="42.89" y1="36.62" x2="57.53" y2="36.62"/><line class="cls-8" x1="17.52" y1="32.63" x2="31.18" y2="32.63"/><line class="cls-8" x1="17.52" y1="36.53" x2="31.18" y2="36.53"/><line class="cls-8" x1="17.52" y1="28.68" x2="31.18" y2="28.68"/><line class="cls-8" x1="17.52" y1="40.43" x2="31.18" y2="40.43"/><line class="cls-8" x1="17.52" y1="44.33" x2="31.18" y2="44.33"/><line class="cls-8" x1="42.91" y1="44.33" x2="57.53" y2="44.33"/><g class="cls-2"><path class="cls-8" d="M63.38,21.93H63l-.55.56V50.71A2.44,2.44,0,0,1,60,53.15H41.91A4.89,4.89,0,0,0,37,58v4.88A4.89,4.89,0,0,1,41.91,58H63.38a2.44,2.44,0,0,0,2.44-2.44V24.37A2.44,2.44,0,0,0,63.38,21.93Z" transform="translate(0 0)"/><path class="cls-6" d="M63.38,21.93l-.78,0-.19.59V50.71A2.44,2.44,0,0,1,60,53.15H41.91A4.89,4.89,0,0,0,37,58v4.88A4.89,4.89,0,0,1,41.91,58H63.38a2.44,2.44,0,0,0,2.44-2.44V24.37a2.44,2.44,0,0,0-2.44-2.44" transform="translate(0 0)"/><path class="cls-8" d="M63.38,21.93l-.78,0-.19.59V50.71A2.44,2.44,0,0,1,60,53.15H41.91A4.89,4.89,0,0,0,37,58v4.88A4.89,4.89,0,0,1,41.91,58H63.38a2.44,2.44,0,0,0,2.44-2.44V24.37A2.44,2.44,0,0,0,63.38,21.93Z" transform="translate(0 0)"/><path class="cls-8" d="M10.69,21.93h.42l.55.56V50.71a2.44,2.44,0,0,0,2.44,2.44h18A4.88,4.88,0,0,1,37,58v4.88A4.88,4.88,0,0,0,32.15,58H10.69a2.44,2.44,0,0,1-2.44-2.44V24.37A2.44,2.44,0,0,1,10.69,21.93Z" transform="translate(0 0)"/><path class="cls-6" d="M10.69,21.93l.93-.08,0,.64V50.71a2.44,2.44,0,0,0,2.44,2.44h18A4.88,4.88,0,0,1,37,58v4.88A4.88,4.88,0,0,0,32.15,58H10.69a2.44,2.44,0,0,1-2.44-2.44V24.37a2.44,2.44,0,0,1,2.44-2.44" transform="translate(0 0)"/><path class="cls-8" d="M10.69,21.93l.93-.08,0,.64V50.71a2.44,2.44,0,0,0,2.44,2.44h18A4.88,4.88,0,0,1,37,58v4.88A4.88,4.88,0,0,0,32.15,58H10.69a2.44,2.44,0,0,1-2.44-2.44V24.37A2.44,2.44,0,0,1,10.69,21.93Z" transform="translate(0 0)"/><line class="cls-8" x1="37.03" y1="24.81" x2="37.03" y2="58.03"/><path class="cls-8" d="M11.67,25.86V18H31A6,6,0,0,1,37,24v1.78" transform="translate(0 0)"/><path class="cls-8" d="M62.42,25.65l-.08-7.59L43.15,18A6.17,6.17,0,0,0,37,24.1v2.43" transform="translate(0 0)"/><polygon class="cls-6" points="67.36 4.67 61.2 0.96 46.68 21.47 56.34 27.28 67.36 4.67"/><polygon class="cls-8" points="67.36 4.67 61.2 0.96 46.68 21.47 56.34 27.28 67.36 4.67"/><path class="cls-6" d="M46.72,21.48l-1.21,1.57a13,13,0,0,1,1.07,7l2.47,1.45A12,12,0,0,1,55.49,29l.85-1.68Z" transform="translate(0 0)"/><path class="cls-8" d="M46.72,21.48l-1.21,1.57a13,13,0,0,1,1.07,7l2.47,1.45A12,12,0,0,1,55.49,29l.85-1.68Z" transform="translate(0 0)"/><polygon class="cls-9" points="47.51 33.44 44.97 33.18 46.58 30.06 49.05 31.51 47.51 33.44"/><polygon class="cls-8" points="47.51 33.44 44.97 33.18 46.58 30.06 49.05 31.51 47.51 33.44"/></g></g></svg>