<svg id="Layer_1" data-name="Layer 1" xmlns="http://www.w3.org/2000/svg" xmlns:xlink="http://www.w3.org/1999/xlink" width="73" height="73" viewBox="0 0 73 73"><defs><style>.cls-1,.cls-10,.cls-7,.cls-8{fill:none;}.cls-2{clip-path:url(#clip-path);}.cls-3{opacity:0.1;}.cls-4{opacity:0.4;}.cls-5{fill:#033948;}.cls-6{fill:#fff;}.cls-10,.cls-7,.cls-8{stroke:#033948;stroke-miterlimit:10;}.cls-8{stroke-linecap:round;}.cls-9{fill:#8fbf2f;}.cls-10{stroke-width:0.25px;}</style><clipPath id="clip-path" transform="translate(0 0)"><rect class="cls-1" width="73" height="73"/></clipPath></defs><title>Syllbus2Go</title><g class="cls-2"><g class="cls-2"><g class="cls-3"><g class="cls-2"><g class="cls-4"><g class="cls-2"><path class="cls-5" d="M73,36.5A36.5,36.5,0,1,1,36.5,0,36.5,36.5,0,0,1,73,36.5" transform="translate(0 0)"/></g></g></g></g><path class="cls-6" d="M15.29,57.15V12.81a5,5,0,0,1,5-5H53.65a2.5,2.5,0,0,1,2.5,2.49V57.41" transform="translate(0 0)"/><path class="cls-7" d="M15.29,57.15V12.81a5,5,0,0,1,5-5H53.65a2.5,2.5,0,0,1,2.5,2.49V57.41" transform="translate(0 0)"/><path class="cls-6" d="M15.32,57.64a5.12,5.12,0,0,0,5.17,4.49H53.65a2.49,2.49,0,0,0,2.5-2.49V52.17H20.27a5,5,0,0,0-4.95,5.47" transform="translate(0 0)"/><path class="cls-7" d="M15.32,57.64a5.12,5.12,0,0,0,5.17,4.49H53.65a2.49,2.49,0,0,0,2.5-2.49V52.17H20.27A5,5,0,0,0,15.32,57.64Z" transform="translate(0 0)"/><line class="cls-6" x1="21" y1="15.13" x2="32.96" y2="15.13"/><line class="cls-8" x1="21" y1="15.13" x2="32.96" y2="15.13"/><line class="cls-6" x1="21" y1="18.12" x2="26.98" y2="18.12"/><line class="cls-8" x1="21" y1="18.12" x2="26.98" y2="18.12"/><line class="cls-6" x1="56.15" y1="52.17" x2="56.15" y2="42.7"/><line class="cls-7" x1="56.15" y1="52.17" x2="56.15" y2="42.7"/><polyline class="cls-9" points="26.49 57.21 26.49 67.61 24 65.17 21.5 67.61 21.5 57.21"/><line class="cls-6" x1="20.28" y1="57.15" x2="51.16" y2="57.15"/><line class="cls-7" x1="20.28" y1="57.15" x2="51.16" y2="57.15"/><rect class="cls-6" x="43.32" y="25.57" width="16.58" height="15.95"/><path class="cls-9" d="M48.08,29.93a.38.38,0,0,0-.55,0,.39.39,0,0,0,0,.55l3.89,3.89a.44.44,0,0,0,.28.12h0a.38.38,0,0,0,.31-.17l3.86-3.86a.39.39,0,0,0-.55-.55l-3.23,3.23V19.27a.39.39,0,0,0-.39-.39.38.38,0,0,0-.39.39v13.9Z" transform="translate(0 0)"/><path class="cls-5" d="M54.45,25.12a.39.39,0,1,0,0,.78h5.07V41.12H43.91V25.9H49a.39.39,0,0,0,0-.78H43.13V41.9H60.3V25.12Z" transform="translate(0 0)"/><path class="cls-10" d="M54.45,25.12a.39.39,0,1,0,0,.78h5.07V41.12H43.91V25.9H49a.39.39,0,0,0,0-.78H43.13V41.9H60.3V25.12Z" transform="translate(0 0)"/></g></g></svg>