<svg id="Layer_1" data-name="Layer 1" xmlns="http://www.w3.org/2000/svg" xmlns:xlink="http://www.w3.org/1999/xlink" width="73" height="73" viewBox="0 0 73 73"> <defs> <style>.cls-1, .cls-7{fill: none;}.cls-2{clip-path: url(#clip-path);}.cls-3{opacity: 0.1;}.cls-4{opacity: 0.4;}.cls-5{fill: #033948;}.cls-6{fill: #fff;}.cls-7{stroke: #033948; stroke-linecap: round; stroke-linejoin: round;}.cls-8{fill: #8fbf2f;}</style> <clipPath id="clip-path" transform="translate(0 0)"> <rect class="cls-1" width="73" height="73"/> </clipPath> </defs> <title>Syllbus2Go</title> <g class="cls-2"> <g class="cls-2"> <g class="cls-3"> <g class="cls-2"> <g class="cls-4"> <g class="cls-2"> <path class="cls-5" d="M73,36.5A36.5,36.5,0,1,1,36.5,0,36.5,36.5,0,0,1,73,36.5" transform="translate(0 0)"/> </g> </g> </g> </g> <rect class="cls-6" x="16.44" y="7.97" width="44" height="56" rx="5" ry="5"/> <rect class="cls-7" x="16.44" y="7.97" width="44" height="56" rx="5" ry="5"/> <path class="cls-6" d="M53.44,14h2a1,1,0,0,1,1,1V55a1,1,0,0,1-1,1h-34a1,1,0,0,1-1-1V15a1,1,0,0,1,1-1h20" transform="translate(0 0)"/> <path class="cls-7" d="M53.44,14h2a1,1,0,0,1,1,1V55a1,1,0,0,1-1,1h-34a1,1,0,0,1-1-1V15a1,1,0,0,1,1-1h20" transform="translate(0 0)"/> <path class="cls-7" d="M39.94,58.47h-3a1.5,1.5,0,0,0,0,3h3a1.5,1.5,0,0,0,0-3Z" transform="translate(0 0)"/> <line class="cls-7" x1="29.44" y1="24.97" x2="47.44" y2="24.97"/> <line class="cls-7" x1="26.44" y1="32.47" x2="50.44" y2="32.47"/> <line class="cls-7" x1="26.44" y1="37.47" x2="50.44" y2="37.47"/> <line class="cls-7" x1="26.44" y1="42.47" x2="50.44" y2="42.47"/> <line class="cls-7" x1="26.44" y1="47.47" x2="44.44" y2="47.47"/> <polygon class="cls-8" points="43.44 7.97 43.44 20.97 47.44 17.97 51.44 20.97 51.44 7.97 43.44 7.97"/> <polygon class="cls-7" points="43.44 7.97 43.44 20.97 47.44 17.97 51.44 20.97 51.44 7.97 43.44 7.97"/> </g> </g></svg>