<svg id="Layer_1" data-name="Layer 1" xmlns="http://www.w3.org/2000/svg" xmlns:xlink="http://www.w3.org/1999/xlink" width="142" height="25" viewBox="0 0 142 25"><defs><style>.cls-1{fill:none;}.cls-2{clip-path:url(#clip-path);}.cls-3{fill:#033948;}.cls-4{fill:#8fbf2f;}</style><clipPath id="clip-path" transform="translate(0 0)"><rect class="cls-1" width="142" height="25"/></clipPath></defs><title>Syllbus2Go</title><g class="cls-2"><path class="cls-3" d="M10.72,5.52a2.66,2.66,0,0,0-1-1.62,4.19,4.19,0,0,0-2.63-.69C5,3.21,3.9,4,3.9,5.44a1.63,1.63,0,0,0,.67,1.33,5.85,5.85,0,0,0,2.16.89c1.17.27,2.18.53,3,.77a18.73,18.73,0,0,1,2.37.82,5.9,5.9,0,0,1,1.13.62,3.46,3.46,0,0,1,.91.92,4.71,4.71,0,0,1,.59,1.32A6.68,6.68,0,0,1,15,14a4.82,4.82,0,0,1-.55,2.34A5.32,5.32,0,0,1,13,18a7,7,0,0,1-2.2,1.07,9.66,9.66,0,0,1-2.66.37,9.81,9.81,0,0,1-6-1.54A5.69,5.69,0,0,1,0,13.37H3.68a2.67,2.67,0,0,0,1.14,2.21,4.6,4.6,0,0,0,2.78.81,4.75,4.75,0,0,0,2.75-.66A2.07,2.07,0,0,0,11.28,14a2.6,2.6,0,0,0-.11-.81,1.46,1.46,0,0,0-.42-.67,2.59,2.59,0,0,0-.87-.54,7.87,7.87,0,0,0-1.42-.43c-1.4-.29-2.6-.59-3.61-.89A9.25,9.25,0,0,1,2.33,9.49,4.27,4.27,0,0,1,.88,7.85,5.58,5.58,0,0,1,.41,5.41,5.47,5.47,0,0,1,.82,3.3,4.54,4.54,0,0,1,2.09,1.58,6,6,0,0,1,4.19.43,9,9,0,0,1,7.14,0a9.4,9.4,0,0,1,3,.43,6.73,6.73,0,0,1,2.27,1.2,5.56,5.56,0,0,1,1.47,1.9,6.5,6.5,0,0,1,.54,2Z" transform="translate(0 0)"/><path class="cls-3" d="M28.44,5.52V18.86A6.44,6.44,0,0,1,28,21.41a5.34,5.34,0,0,1-1.31,1.89,5.64,5.64,0,0,1-2,1.18,7,7,0,0,1-2.43.42,6,6,0,0,1-4.47-1.47,5.33,5.33,0,0,1-1.4-4H19.7a2.06,2.06,0,0,0,.62,1.72,2.93,2.93,0,0,0,2.1.66,2.26,2.26,0,0,0,.93-.21,2.52,2.52,0,0,0,.79-.59,2.7,2.7,0,0,0,.56-.92,3.38,3.38,0,0,0,.22-1.21v-2.2a2.49,2.49,0,0,1-1.4,1.42,5,5,0,0,1-2.27.51,5.49,5.49,0,0,1-2-.35,4.59,4.59,0,0,1-1.57-1,4.53,4.53,0,0,1-1-1.54,5.2,5.2,0,0,1-.33-2V5.52H19.9v7.71c0,1.68.74,2.52,2.26,2.52a2.83,2.83,0,0,0,2-.71,2.41,2.41,0,0,0,.76-1.81V5.52Z" transform="translate(0 0)"/><rect class="cls-3" x="29.84" y="0.3" width="3.57" height="18.85"/><rect class="cls-3" x="34.81" y="0.3" width="3.57" height="18.85"/><path class="cls-3" d="M48.6,19.17a5.77,5.77,0,0,1-.22-1.28A4.31,4.31,0,0,1,46.7,19a6.4,6.4,0,0,1-2.41.43,4.86,4.86,0,0,1-3.42-1,3.51,3.51,0,0,1-1.09-2.68,4.92,4.92,0,0,1,.47-2.32,3.45,3.45,0,0,1,1.29-1.36,6.3,6.3,0,0,1,2-.73q1.14-.23,2.49-.42a4.79,4.79,0,0,0,1.81-.51,1.15,1.15,0,0,0,.47-1,1.16,1.16,0,0,0-.62-1A3.19,3.19,0,0,0,46,8a2.36,2.36,0,0,0-1.77.55A2.62,2.62,0,0,0,43.54,10H40.22a6,6,0,0,1,.35-1.92,3.66,3.66,0,0,1,1-1.51,4.82,4.82,0,0,1,1.83-1,9.41,9.41,0,0,1,2.74-.35,8.89,8.89,0,0,1,2.71.36,4.36,4.36,0,0,1,1.78,1,3.92,3.92,0,0,1,1,1.68,7.83,7.83,0,0,1,.3,2.26v8.61Zm-.25-6.69a1.84,1.84,0,0,1-.8.44,15,15,0,0,1-1.51.36,5.09,5.09,0,0,0-2.11.77,1.61,1.61,0,0,0-.58,1.34c0,1,.58,1.51,1.73,1.51a3.55,3.55,0,0,0,1.28-.23,3.33,3.33,0,0,0,1-.63,3,3,0,0,0,.69-.94A2.57,2.57,0,0,0,48.32,14Z" transform="translate(0 0)"/><path class="cls-3" d="M53.32,19.17V.3h3.51V7.35a4.7,4.7,0,0,1,4-2.12,5.24,5.24,0,0,1,2.35.51,4.84,4.84,0,0,1,1.74,1.44A6.72,6.72,0,0,1,66,9.39a10.4,10.4,0,0,1,.37,2.82,9.94,9.94,0,0,1-.44,3,7.11,7.11,0,0,1-1.21,2.27A5.05,5.05,0,0,1,62.89,19a5.63,5.63,0,0,1-2.35.5,4.11,4.11,0,0,1-3.76-2l0,1.72Zm6.4-2.62a2.63,2.63,0,0,0,2.19-1.14,4.81,4.81,0,0,0,.85-3q0-4.17-3.07-4.17c-2,0-3,1.47-3,4.39a4.28,4.28,0,0,0,.86,2.8,2.67,2.67,0,0,0,2.16,1.08" transform="translate(0 0)"/><path class="cls-3" d="M76.59,19.17v-2a4.59,4.59,0,0,1-4.2,2.25,4.67,4.67,0,0,1-1.86-.36,4.11,4.11,0,0,1-1.44-1,4.91,4.91,0,0,1-1-1.56,5.92,5.92,0,0,1-.34-2v-9h3.57v8.42q0,2.52,2.28,2.52a2.52,2.52,0,0,0,2.07-.86,3.38,3.38,0,0,0,.7-2.21V5.52H80V19.17Z" transform="translate(0 0)"/><path class="cls-3" d="M90,9.68a2,2,0,0,0-.7-1.36,2.89,2.89,0,0,0-1.72-.42,4,4,0,0,0-1.66.26.9.9,0,0,0-.56.89,1,1,0,0,0,.56.88,7.11,7.11,0,0,0,1.63.63l3,.84a7.36,7.36,0,0,1,1.93.81,2.7,2.7,0,0,1,1,1.16,4.71,4.71,0,0,1,.31,1.89,3.66,3.66,0,0,1-1.51,3,7.07,7.07,0,0,1-4.47,1.2,9.83,9.83,0,0,1-2.64-.33,6.2,6.2,0,0,1-2-.95,4.54,4.54,0,0,1-1.29-1.48,4.45,4.45,0,0,1-.48-1.94H85a1.67,1.67,0,0,0,.76,1.48,3.34,3.34,0,0,0,2,.53,4.33,4.33,0,0,0,1.74-.32,1,1,0,0,0,.73-1,1.17,1.17,0,0,0-.53-1.07,5.56,5.56,0,0,0-1.64-.57,22.06,22.06,0,0,1-3.18-.92A6.76,6.76,0,0,1,83,11.85a2.9,2.9,0,0,1-.91-1.26,4.93,4.93,0,0,1-.23-1.54,3.4,3.4,0,0,1,.31-1.45,3.13,3.13,0,0,1,1-1.21A5.27,5.27,0,0,1,85,5.55a9.86,9.86,0,0,1,2.69-.32,6.41,6.41,0,0,1,4.26,1.18,4.57,4.57,0,0,1,1.48,3.27Z" transform="translate(0 0)"/><path class="cls-4" d="M95.17,19.17a13,13,0,0,1,.21-2.4,7.35,7.35,0,0,1,.81-2.2,10.33,10.33,0,0,1,1.69-2.21,22.14,22.14,0,0,1,2.87-2.4c.67-.46,1.22-.88,1.66-1.25a8,8,0,0,0,1-1.06,3.36,3.36,0,0,0,.55-1,3.14,3.14,0,0,0,.17-1.08A3,3,0,0,0,104,4.39a1.89,1.89,0,0,0-.55-.76,2.15,2.15,0,0,0-.82-.39,4.67,4.67,0,0,0-1-.11,2.74,2.74,0,0,0-2,.71A2.78,2.78,0,0,0,99,5.52h-3.5A6.17,6.17,0,0,1,97,1.72,5.8,5.8,0,0,1,101.45,0,9.25,9.25,0,0,1,104,.37a5.6,5.6,0,0,1,2,1,4.49,4.49,0,0,1,1.28,1.69,5.68,5.68,0,0,1,.46,2.38,6.16,6.16,0,0,1-.28,1.93,5.6,5.6,0,0,1-.9,1.7,10.1,10.1,0,0,1-1.66,1.7c-.69.58-1.53,1.22-2.51,1.93a9.36,9.36,0,0,0-1.79,1.69A3.14,3.14,0,0,0,99.8,16h8v3.15Z" transform="translate(0 0)"/><path class="cls-4" d="M123,19.17,122.91,17a4.38,4.38,0,0,1-2.12,1.8,8.17,8.17,0,0,1-3.35.65,7.13,7.13,0,0,1-3.41-.81,8.28,8.28,0,0,1-2.61-2.17,9.68,9.68,0,0,1-1.66-3.13,11.65,11.65,0,0,1-.58-3.67,12,12,0,0,1,.58-3.77,8.93,8.93,0,0,1,1.7-3.09,7.79,7.79,0,0,1,2.8-2.07,9.33,9.33,0,0,1,3.9-.76,9.62,9.62,0,0,1,3,.47,8,8,0,0,1,2.47,1.29,6.49,6.49,0,0,1,1.7,2,6,6,0,0,1,.76,2.51h-3.85A2.9,2.9,0,0,0,121.84,5a3.68,3.68,0,0,0-.91-1,4.83,4.83,0,0,0-1.28-.66,4.7,4.7,0,0,0-1.49-.24,4.5,4.5,0,0,0-3.69,1.71,7.77,7.77,0,0,0-1.39,5,9.28,9.28,0,0,0,.29,2.26,6.49,6.49,0,0,0,.9,2.06,5,5,0,0,0,1.58,1.5,4.38,4.38,0,0,0,2.28.57,4.57,4.57,0,0,0,1.74-.33,4.35,4.35,0,0,0,1.42-.9,4.24,4.24,0,0,0,.94-1.33,3.85,3.85,0,0,0,.35-1.61h-4V9h7.61V19.17Z" transform="translate(0 0)"/><path class="cls-4" d="M134.49,19.42a7.69,7.69,0,0,1-2.93-.53,6.17,6.17,0,0,1-2.19-1.45A6.37,6.37,0,0,1,128,15.19a8.63,8.63,0,0,1-.46-2.89A8.46,8.46,0,0,1,128,9.39,6,6,0,0,1,131.6,5.7a7.72,7.72,0,0,1,2.89-.51,7.56,7.56,0,0,1,2.86.51,6.08,6.08,0,0,1,3.53,3.67,8.49,8.49,0,0,1,.48,2.93,8.45,8.45,0,0,1-.48,2.93,6.4,6.4,0,0,1-1.38,2.24,6,6,0,0,1-2.16,1.44,7.65,7.65,0,0,1-2.85.51m0-3q3.27,0,3.27-4.12c0-2.72-1.09-4.09-3.27-4.09s-3.26,1.37-3.26,4.09,1.08,4.12,3.26,4.12" transform="translate(0 0)"/></g></svg>